<svg width="206" height="206" viewBox="0 0 206 206" fill="none" xmlns="http://www.w3.org/2000/svg">
<path d="M76.2348 15.72C75.8836 15.72 75.5629 15.6344 75.2727 15.4632C74.9824 15.289 74.7503 15.0568 74.5761 14.7666C74.4049 14.4764 74.3193 14.1557 74.3193 13.8045C74.3193 13.4504 74.4049 13.1297 74.5761 12.8424C74.7503 12.5521 74.9824 12.3214 75.2727 12.1502C75.5629 11.976 75.8836 11.889 76.2348 11.889C76.5889 11.889 76.9096 11.976 77.1969 12.1502C77.4871 12.3214 77.7179 12.5521 77.8891 12.8424C78.0633 13.1297 78.1503 13.4504 78.1503 13.8045C78.1503 14.1557 78.0633 14.4764 77.8891 14.7666C77.7179 15.0568 77.4871 15.289 77.1969 15.4632C76.9096 15.6344 76.5889 15.72 76.2348 15.72ZM85.9659 9.59904V8.44101H92.8662V9.59904H90.0843V17.3569H88.7434V9.59904H85.9659ZM96.1335 17.4919C95.5065 17.4919 94.9595 17.3482 94.4922 17.0609C94.0249 16.7736 93.6621 16.3716 93.4038 15.855C93.1455 15.3384 93.0164 14.7347 93.0164 14.0439C93.0164 13.3503 93.1455 12.7437 93.4038 12.2242C93.6621 11.7047 94.0249 11.3012 94.4922 11.0139C94.9595 10.7266 95.5065 10.5829 96.1335 10.5829C96.7604 10.5829 97.3074 10.7266 97.7747 11.0139C98.242 11.3012 98.6048 11.7047 98.8631 12.2242C99.1214 12.7437 99.2505 13.3503 99.2505 14.0439C99.2505 14.7347 99.1214 15.3384 98.8631 15.855C98.6048 16.3716 98.242 16.7736 97.7747 17.0609C97.3074 17.3482 96.7604 17.4919 96.1335 17.4919ZM96.1378 16.3992C96.5441 16.3992 96.8808 16.2918 97.1478 16.077C97.4148 15.8622 97.6122 15.5764 97.7399 15.2194C97.8705 14.8624 97.9358 14.4691 97.9358 14.0396C97.9358 13.6129 97.8705 13.2211 97.7399 12.8641C97.6122 12.5043 97.4148 12.2155 97.1478 11.9978C96.8808 11.7801 96.5441 11.6713 96.1378 11.6713C95.7286 11.6713 95.389 11.7801 95.1191 11.9978C94.8521 12.2155 94.6533 12.5043 94.5227 12.8641C94.395 13.2211 94.3311 13.6129 94.3311 14.0396C94.3311 14.4691 94.395 14.8624 94.5227 15.2194C94.6533 15.5764 94.8521 15.8622 95.1191 16.077C95.389 16.2918 95.7286 16.3992 96.1378 16.3992ZM103.825 10.67V11.7148H100.172V10.67H103.825ZM101.152 9.06791H102.454V15.3935C102.454 15.646 102.491 15.8361 102.567 15.9638C102.642 16.0886 102.739 16.1742 102.858 16.2207C102.98 16.2642 103.112 16.286 103.255 16.286C103.359 16.286 103.451 16.2787 103.529 16.2642C103.607 16.2497 103.668 16.2381 103.712 16.2294L103.947 17.3047C103.871 17.3337 103.764 17.3627 103.625 17.3918C103.485 17.4237 103.311 17.4411 103.102 17.444C102.76 17.4498 102.441 17.3889 102.145 17.2612C101.848 17.1335 101.609 16.9361 101.426 16.6691C101.243 16.4021 101.152 16.0669 101.152 15.6634V9.06791ZM107.211 17.505C106.787 17.505 106.404 17.4266 106.062 17.2699C105.719 17.1102 105.448 16.8795 105.247 16.5777C105.05 16.2758 104.951 15.9058 104.951 15.4675C104.951 15.0902 105.024 14.7797 105.169 14.5359C105.314 14.2921 105.51 14.0991 105.757 13.9569C106.004 13.8147 106.279 13.7073 106.584 13.6347C106.889 13.5622 107.199 13.507 107.516 13.4693C107.916 13.4228 108.241 13.3851 108.491 13.3561C108.74 13.3242 108.922 13.2734 109.035 13.2037C109.148 13.1341 109.205 13.0209 109.205 12.8641V12.8337C109.205 12.4535 109.097 12.1589 108.883 11.9499C108.671 11.7409 108.354 11.6365 107.934 11.6365C107.495 11.6365 107.15 11.7337 106.897 11.9281C106.648 12.1197 106.475 12.333 106.379 12.5681L105.156 12.2895C105.301 11.8832 105.513 11.5552 105.792 11.3056C106.073 11.0531 106.397 10.8703 106.762 10.7571C107.128 10.641 107.513 10.5829 107.916 10.5829C108.183 10.5829 108.466 10.6148 108.765 10.6787C109.067 10.7396 109.348 10.8528 109.61 11.0183C109.874 11.1837 110.09 11.4202 110.258 11.7279C110.427 12.0326 110.511 12.4288 110.511 12.9164V17.3569H109.24V16.4427H109.187C109.103 16.611 108.977 16.7765 108.809 16.939C108.64 17.1015 108.424 17.2365 108.16 17.3439C107.896 17.4513 107.579 17.505 107.211 17.505ZM107.494 16.4601C107.854 16.4601 108.161 16.389 108.417 16.2468C108.675 16.1046 108.871 15.9188 109.005 15.6896C109.141 15.4574 109.209 15.2092 109.209 14.9451V14.0831C109.163 14.1296 109.073 14.1731 108.939 14.2137C108.809 14.2515 108.659 14.2848 108.491 14.3139C108.322 14.34 108.158 14.3646 107.999 14.3879C107.839 14.4082 107.706 14.4256 107.598 14.4401C107.346 14.472 107.115 14.5257 106.906 14.6012C106.7 14.6766 106.535 14.7855 106.41 14.9277C106.288 15.067 106.227 15.2528 106.227 15.4849C106.227 15.8071 106.346 16.0509 106.584 16.2163C106.822 16.3789 107.125 16.4601 107.494 16.4601ZM113.546 8.44101V17.3569H112.245V8.44101H113.546ZM86.4056 32.3569V23.441H89.6707C90.3034 23.441 90.8273 23.5455 91.2423 23.7545C91.6573 23.9605 91.9679 24.2406 92.174 24.5947C92.38 24.9459 92.4831 25.342 92.4831 25.7832C92.4831 26.1547 92.4149 26.4681 92.2784 26.7235C92.142 26.976 91.9592 27.1792 91.7299 27.333C91.5035 27.4839 91.2539 27.5942 90.9811 27.6639V27.751C91.2771 27.7655 91.5659 27.8612 91.8475 28.0383C92.1319 28.2124 92.367 28.4606 92.5527 28.7827C92.7385 29.1049 92.8313 29.4967 92.8313 29.9582C92.8313 30.4138 92.724 30.8231 92.5092 31.1858C92.2973 31.5457 91.9693 31.8316 91.5253 32.0435C91.0812 32.2525 90.5138 32.3569 89.8231 32.3569H86.4056ZM87.7508 31.2033H89.6925C90.3368 31.2033 90.7983 31.0785 91.0769 30.8289C91.3555 30.5793 91.4948 30.2673 91.4948 29.8929C91.4948 29.6113 91.4237 29.353 91.2815 29.1179C91.1393 28.8829 90.9361 28.6957 90.672 28.5563C90.4108 28.417 90.1003 28.3474 89.7404 28.3474H87.7508V31.2033ZM87.7508 27.2982H89.5532C89.855 27.2982 90.1264 27.2401 90.3673 27.1241C90.6111 27.008 90.8041 26.8454 90.9463 26.6365C91.0914 26.4246 91.164 26.175 91.164 25.8877C91.164 25.5191 91.0348 25.21 90.7765 24.9604C90.5182 24.7108 90.122 24.586 89.588 24.586H87.7508V27.2982ZM96.2684 32.505C95.8447 32.505 95.4616 32.4266 95.1191 32.2699C94.7766 32.1102 94.5053 31.8795 94.305 31.5777C94.1076 31.2758 94.009 30.9058 94.009 30.4675C94.009 30.0902 94.0815 29.7797 94.2266 29.5359C94.3717 29.2921 94.5677 29.0991 94.8143 28.9569C95.061 28.8147 95.3368 28.7073 95.6415 28.6347C95.9463 28.5622 96.2568 28.507 96.5732 28.4693C96.9737 28.4228 97.2987 28.3851 97.5483 28.3561C97.7979 28.3242 97.9793 28.2734 98.0925 28.2037C98.2057 28.1341 98.2623 28.0209 98.2623 27.8641V27.8337C98.2623 27.4535 98.1549 27.1589 97.9401 26.9499C97.7283 26.7409 97.4119 26.6365 96.9911 26.6365C96.5528 26.6365 96.2075 26.7337 95.955 26.9281C95.7054 27.1197 95.5327 27.333 95.4369 27.5681L94.2136 27.2895C94.3587 26.8832 94.5706 26.5552 94.8492 26.3056C95.1307 26.0531 95.4543 25.8703 95.82 25.7571C96.1857 25.641 96.5702 25.5829 96.9737 25.5829C97.2407 25.5829 97.5237 25.6148 97.8226 25.6787C98.1244 25.7396 98.406 25.8528 98.6672 26.0183C98.9313 26.1837 99.1475 26.4202 99.3158 26.7279C99.4842 27.0326 99.5683 27.4288 99.5683 27.9164V32.3569H98.2971V31.4427H98.2449C98.1607 31.611 98.0345 31.7765 97.8661 31.939C97.6978 32.1015 97.4816 32.2365 97.2175 32.3439C96.9534 32.4513 96.637 32.505 96.2684 32.505ZM96.5514 31.4601C96.9113 31.4601 97.2189 31.389 97.4743 31.2468C97.7326 31.1046 97.9285 30.9188 98.062 30.6896C98.1984 30.4574 98.2667 30.2092 98.2667 29.9451V29.0831C98.2202 29.1296 98.1302 29.1731 97.9967 29.2137C97.8661 29.2515 97.7167 29.2848 97.5483 29.3139C97.38 29.34 97.216 29.3646 97.0564 29.3879C96.8968 29.4082 96.7633 29.4256 96.6559 29.4401C96.4034 29.472 96.1726 29.5257 95.9637 29.6012C95.7576 29.6766 95.5922 29.7855 95.4674 29.9277C95.3455 30.067 95.2845 30.2528 95.2845 30.4849C95.2845 30.8071 95.4035 31.0509 95.6415 31.2163C95.8795 31.3789 96.1828 31.4601 96.5514 31.4601ZM102.604 23.441V32.3569H101.302V23.441H102.604ZM106.301 32.505C105.877 32.505 105.494 32.4266 105.152 32.2699C104.809 32.1102 104.538 31.8795 104.338 31.5777C104.14 31.2758 104.042 30.9058 104.042 30.4675C104.042 30.0902 104.114 29.7797 104.259 29.5359C104.404 29.2921 104.6 29.0991 104.847 28.9569C105.094 28.8147 105.369 28.7073 105.674 28.6347C105.979 28.5622 106.289 28.507 106.606 28.4693C107.006 28.4228 107.331 28.3851 107.581 28.3561C107.831 28.3242 108.012 28.2734 108.125 28.2037C108.238 28.1341 108.295 28.0209 108.295 27.8641V27.8337C108.295 27.4535 108.188 27.1589 107.973 26.9499C107.761 26.7409 107.445 26.6365 107.024 26.6365C106.585 26.6365 106.24 26.7337 105.988 26.9281C105.738 27.1197 105.565 27.333 105.469 27.5681L104.246 27.2895C104.391 26.8832 104.603 26.5552 104.882 26.3056C105.163 26.0531 105.487 25.8703 105.853 25.7571C106.218 25.641 106.603 25.5829 107.006 25.5829C107.273 25.5829 107.556 25.6148 107.855 25.6787C108.157 25.7396 108.439 25.8528 108.7 26.0183C108.964 26.1837 109.18 26.4202 109.348 26.7279C109.517 27.0326 109.601 27.4288 109.601 27.9164V32.3569H108.33V31.4427H108.277C108.193 31.611 108.067 31.7765 107.899 31.939C107.73 32.1015 107.514 32.2365 107.25 32.3439C106.986 32.4513 106.67 32.505 106.301 32.505ZM106.584 31.4601C106.944 31.4601 107.252 31.389 107.507 31.2468C107.765 31.1046 107.961 30.9188 108.095 30.6896C108.231 30.4574 108.299 30.2092 108.299 29.9451V29.0831C108.253 29.1296 108.163 29.1731 108.029 29.2137C107.899 29.2515 107.749 29.2848 107.581 29.3139C107.413 29.34 107.249 29.3646 107.089 29.3879C106.929 29.4082 106.796 29.4256 106.688 29.4401C106.436 29.472 106.205 29.5257 105.996 29.6012C105.79 29.6766 105.625 29.7855 105.5 29.9277C105.378 30.067 105.317 30.2528 105.317 30.4849C105.317 30.8071 105.436 31.0509 105.674 31.2163C105.912 31.3789 106.215 31.4601 106.584 31.4601ZM87.6028 43.3866V47.3569H86.3011V40.67H87.5506V41.7584H87.6333C87.7871 41.4043 88.028 41.1199 88.356 40.9051C88.6868 40.6903 89.1033 40.5829 89.6054 40.5829C90.0611 40.5829 90.4601 40.6787 90.8026 40.8703C91.1451 41.0589 91.4107 41.3404 91.5993 41.7148C91.788 42.0892 91.8823 42.5521 91.8823 43.1036V47.3569H90.5806V43.2603C90.5806 42.7756 90.4543 42.3969 90.2018 42.1241C89.9493 41.8483 89.6025 41.7105 89.1614 41.7105C88.8595 41.7105 88.5911 41.7758 88.356 41.9064C88.1238 42.037 87.9395 42.2285 87.8031 42.481C87.6696 42.7306 87.6028 43.0325 87.6028 43.3866ZM96.4447 47.4919C95.7975 47.4919 95.2403 47.3453 94.773 47.0522C94.3086 46.7562 93.9516 46.3484 93.702 45.8289C93.4524 45.3093 93.3276 44.7144 93.3276 44.0439C93.3276 43.3648 93.4553 42.7655 93.7107 42.246C93.9661 41.7235 94.326 41.3158 94.7904 41.0226C95.2548 40.7295 95.8019 40.5829 96.4317 40.5829C96.9396 40.5829 97.3923 40.6772 97.7899 40.8659C98.1876 41.0516 98.5083 41.3129 98.7521 41.6495C98.9988 41.9862 99.1453 42.3795 99.1918 42.8293H97.9249C97.8553 42.5159 97.6956 42.246 97.446 42.0196C97.1993 41.7932 96.8685 41.68 96.4534 41.68C96.0906 41.68 95.7728 41.7758 95.5 41.9673C95.2301 42.156 95.0197 42.4259 94.8688 42.7771C94.7178 43.1254 94.6424 43.5375 94.6424 44.0135C94.6424 44.5011 94.7164 44.9219 94.8644 45.276C95.0124 45.6301 95.2214 45.9043 95.4913 46.0988C95.7641 46.2932 96.0848 46.3905 96.4534 46.3905C96.7001 46.3905 96.9236 46.3455 97.1239 46.2555C97.327 46.1626 97.4968 46.0306 97.6332 45.8593C97.7725 45.6881 97.8698 45.482 97.9249 45.2411H99.1918C99.1453 45.6736 99.0046 46.0596 98.7695 46.3992C98.5344 46.7387 98.2195 47.0058 97.8248 47.2002C97.433 47.3947 96.9729 47.4919 96.4447 47.4919ZM103.466 47.4919C102.807 47.4919 102.24 47.3511 101.764 47.0696C101.291 46.7852 100.925 46.3861 100.667 45.8724C100.411 45.3558 100.283 44.7507 100.283 44.057C100.283 43.3721 100.411 42.7684 100.667 42.246C100.925 41.7235 101.285 41.3158 101.746 41.0226C102.211 40.7295 102.753 40.5829 103.374 40.5829C103.752 40.5829 104.117 40.6453 104.471 40.7701C104.826 40.8949 105.143 41.0908 105.425 41.3578C105.706 41.6249 105.928 41.9717 106.091 42.3983C106.253 42.8221 106.335 43.3372 106.335 43.9438V44.4053H101.019V43.4301H105.059C105.059 43.0876 104.99 42.7843 104.85 42.5202C104.711 42.2532 104.515 42.0428 104.262 41.889C104.013 41.7351 103.72 41.6582 103.383 41.6582C103.017 41.6582 102.698 41.7482 102.425 41.9281C102.155 42.1052 101.946 42.3374 101.798 42.6247C101.653 42.9091 101.581 43.2182 101.581 43.552V44.3139C101.581 44.7608 101.659 45.141 101.816 45.4545C101.975 45.7679 102.197 46.0074 102.482 46.1728C102.766 46.3353 103.099 46.4166 103.479 46.4166C103.726 46.4166 103.95 46.3818 104.154 46.3121C104.357 46.2395 104.532 46.1322 104.68 45.9899C104.828 45.8477 104.942 45.6721 105.02 45.4632L106.252 45.6852C106.153 46.048 105.976 46.3658 105.721 46.6386C105.468 46.9085 105.151 47.1189 104.767 47.2699C104.387 47.4179 103.953 47.4919 103.466 47.4919Z" fill="black" fill-opacity="0.3"/>
<path d="M129.264 44.0012V38.1153H130.435V44.0012H129.264ZM126.909 41.6416V40.4749H132.795V41.6416H126.909ZM129.377 61.6133V50.4684H130.091V61.6133H129.377ZM131.61 53.925C131.564 53.5129 131.372 53.1936 131.036 52.9673C130.699 52.738 130.275 52.6233 129.765 52.6233C129.399 52.6233 129.082 52.6814 128.815 52.7975C128.548 52.9107 128.341 53.0674 128.193 53.2677C128.048 53.465 127.975 53.6899 127.975 53.9424C127.975 54.1543 128.025 54.3372 128.123 54.491C128.225 54.6448 128.357 54.774 128.519 54.8784C128.685 54.98 128.862 55.0656 129.051 55.1353C129.239 55.202 129.421 55.2572 129.595 55.3007L130.465 55.5271C130.75 55.5968 131.042 55.6911 131.34 55.8101C131.639 55.9291 131.917 56.0858 132.172 56.2803C132.427 56.4747 132.633 56.7156 132.79 57.0029C132.95 57.2903 133.03 57.6342 133.03 58.0347C133.03 58.5397 132.899 58.9881 132.638 59.3799C132.38 59.7717 132.004 60.0808 131.51 60.3072C131.02 60.5336 130.426 60.6468 129.73 60.6468C129.062 60.6468 128.485 60.5409 127.997 60.329C127.509 60.1171 127.128 59.8167 126.852 59.4278C126.576 59.036 126.424 58.5716 126.395 58.0347H127.744C127.771 58.3569 127.875 58.6253 128.058 58.8401C128.244 59.052 128.48 59.2102 128.768 59.3146C129.058 59.4162 129.376 59.467 129.721 59.467C130.101 59.467 130.439 59.4075 130.735 59.2885C131.034 59.1666 131.269 58.9983 131.441 58.7835C131.612 58.5658 131.697 58.3119 131.697 58.0217C131.697 57.7575 131.622 57.5413 131.471 57.373C131.323 57.2046 131.121 57.0653 130.866 56.955C130.613 56.8448 130.328 56.7475 130.008 56.6634L128.955 56.376C128.241 56.1816 127.675 55.8957 127.257 55.5184C126.842 55.1411 126.634 54.6419 126.634 54.0208C126.634 53.5071 126.774 53.0587 127.052 52.6756C127.331 52.2925 127.708 51.995 128.184 51.7831C128.66 51.5683 129.197 51.461 129.795 51.461C130.399 51.461 130.931 51.5669 131.393 51.7788C131.857 51.9906 132.223 52.2823 132.49 52.6538C132.757 53.0224 132.896 53.4461 132.908 53.925H131.61ZM134.515 60.4988V59.5236L137.532 56.3978C137.854 56.0582 138.12 55.7607 138.329 55.5053C138.541 55.247 138.699 55.0018 138.803 54.7696C138.908 54.5374 138.96 54.2907 138.96 54.0295C138.96 53.7335 138.89 53.4781 138.751 53.2633C138.612 53.0456 138.422 52.8787 138.181 52.7627C137.94 52.6437 137.669 52.5842 137.367 52.5842C137.048 52.5842 136.769 52.6495 136.531 52.7801C136.293 52.9107 136.11 53.095 135.982 53.333C135.855 53.5709 135.791 53.8496 135.791 54.1688H134.507C134.507 53.6261 134.631 53.1516 134.881 52.7452C135.131 52.3389 135.473 52.024 135.908 51.8005C136.344 51.5742 136.839 51.461 137.393 51.461C137.953 51.461 138.446 51.5727 138.873 51.7962C139.303 52.0168 139.638 52.3186 139.879 52.7017C140.12 53.0819 140.24 53.5114 140.24 53.9903C140.24 54.3212 140.178 54.6448 140.053 54.9612C139.931 55.2775 139.718 55.6301 139.413 56.0191C139.108 56.4051 138.684 56.8738 138.142 57.4252L136.37 59.2798V59.3451H140.384V60.4988H134.515ZM145.138 60.6207C144.54 60.6207 144.006 60.5176 143.536 60.3116C143.068 60.1055 142.698 59.8196 142.426 59.4539C142.156 59.0854 142.01 58.6587 141.99 58.174H143.357C143.375 58.4381 143.463 58.6674 143.623 58.8619C143.785 59.0534 143.997 59.2014 144.258 59.3059C144.52 59.4104 144.81 59.4627 145.129 59.4627C145.48 59.4627 145.791 59.4017 146.061 59.2798C146.333 59.1579 146.547 58.9881 146.701 58.7704C146.854 58.5499 146.931 58.2959 146.931 58.0086C146.931 57.7097 146.854 57.447 146.701 57.2206C146.55 56.9913 146.328 56.8114 146.035 56.6808C145.744 56.5502 145.393 56.4849 144.981 56.4849H144.228V55.3878H144.981C145.312 55.3878 145.602 55.3283 145.852 55.2093C146.104 55.0903 146.302 54.9249 146.444 54.713C146.586 54.4982 146.657 54.2472 146.657 53.9599C146.657 53.6841 146.595 53.4447 146.47 53.2415C146.348 53.0355 146.174 52.8744 145.947 52.7583C145.724 52.6422 145.46 52.5842 145.155 52.5842C144.865 52.5842 144.594 52.6379 144.341 52.7452C144.091 52.8497 143.888 53.0006 143.732 53.198C143.575 53.3925 143.491 53.6261 143.479 53.8989H142.177C142.192 53.4171 142.334 52.9934 142.604 52.6277C142.877 52.262 143.237 51.9761 143.684 51.7701C144.131 51.564 144.627 51.461 145.173 51.461C145.744 51.461 146.238 51.5727 146.653 51.7962C147.071 52.0168 147.393 52.3113 147.619 52.6799C147.848 53.0485 147.962 53.452 147.959 53.8902C147.962 54.3894 147.822 54.8131 147.541 55.1614C147.262 55.5097 146.891 55.7433 146.426 55.8623V55.932C147.018 56.022 147.477 56.257 147.802 56.6372C148.13 57.0174 148.293 57.4891 148.29 58.0521C148.293 58.5426 148.156 58.9823 147.88 59.3712C147.608 59.7601 147.235 60.0663 146.762 60.2898C146.288 60.5104 145.747 60.6207 145.138 60.6207ZM129.73 75.6207C129.132 75.6207 128.598 75.5176 128.128 75.3116C127.66 75.1055 127.29 74.8196 127.017 74.4539C126.748 74.0854 126.602 73.6587 126.582 73.174H127.949C127.967 73.4381 128.055 73.6674 128.215 73.8619C128.377 74.0534 128.589 74.2014 128.85 74.3059C129.111 74.4104 129.402 74.4627 129.721 74.4627C130.072 74.4627 130.383 74.4017 130.653 74.2798C130.925 74.1579 131.139 73.9881 131.293 73.7704C131.446 73.5499 131.523 73.2959 131.523 73.0086C131.523 72.7097 131.446 72.447 131.293 72.2206C131.142 71.9913 130.92 71.8114 130.627 71.6808C130.336 71.5502 129.985 71.4849 129.573 71.4849H128.82V70.3878H129.573C129.904 70.3878 130.194 70.3283 130.444 70.2093C130.696 70.0903 130.894 69.9249 131.036 69.713C131.178 69.4982 131.249 69.2472 131.249 68.9599C131.249 68.6841 131.187 68.4447 131.062 68.2415C130.94 68.0355 130.766 67.8744 130.539 67.7583C130.316 67.6422 130.052 67.5842 129.747 67.5842C129.457 67.5842 129.186 67.6379 128.933 67.7452C128.683 67.8497 128.48 68.0006 128.324 68.198C128.167 68.3925 128.083 68.6261 128.071 68.8989H126.769C126.784 68.4171 126.926 67.9934 127.196 67.6277C127.469 67.262 127.829 66.9761 128.276 66.7701C128.723 66.564 129.219 66.461 129.765 66.461C130.336 66.461 130.83 66.5727 131.245 66.7962C131.663 67.0168 131.985 67.3113 132.211 67.6799C132.44 68.0485 132.554 68.452 132.551 68.8902C132.554 69.3894 132.414 69.8131 132.133 70.1614C131.854 70.5097 131.483 70.7433 131.018 70.8623V70.932C131.61 71.022 132.069 71.257 132.394 71.6372C132.722 72.0174 132.885 72.4891 132.882 73.0521C132.885 73.5426 132.748 73.9823 132.472 74.3712C132.2 74.7601 131.827 75.0663 131.354 75.2898C130.88 75.5104 130.339 75.6207 129.73 75.6207Z" fill="black" fill-opacity="0.3"/>
<g filter="url(#filter0_bi_231_3348)">
<path d="M103 206C159.885 206 206 159.885 206 103C206 46.1147 159.885 0 103 0C46.1147 0 0 46.1147 0 103C0 159.885 46.1147 206 103 206Z" fill="white" fill-opacity="0.05"/>
<path d="M103 206C159.885 206 206 159.885 206 103C206 46.1147 159.885 0 103 0C46.1147 0 0 46.1147 0 103C0 159.885 46.1147 206 103 206Z" fill="url(#paint0_linear_231_3348)" fill-opacity="0.35"/>
<path d="M204.204 103C204.204 158.893 158.893 204.204 103 204.204C47.1068 204.204 1.79646 158.893 1.79646 103C1.79646 47.1068 47.1068 1.79646 103 1.79646C158.893 1.79646 204.204 47.1068 204.204 103Z" stroke="url(#paint1_linear_231_3348)" stroke-opacity="0.1" stroke-width="3.59292"/>
</g>
<g filter="url(#filter1_i_231_3348)">
<path d="M103 182.591C146.957 182.591 182.591 146.957 182.591 103C182.591 59.043 146.957 23.4089 103 23.4089C59.0431 23.4089 23.4091 59.043 23.4091 103C23.4091 146.957 59.0431 182.591 103 182.591Z" fill="url(#paint2_linear_231_3348)" fill-opacity="0.8"/>
</g>
<defs>
<filter id="filter0_bi_231_3348" x="-71.8584" y="-71.8584" width="349.717" height="349.717" filterUnits="userSpaceOnUse" color-interpolation-filters="sRGB">
<feFlood flood-opacity="0" result="BackgroundImageFix"/>
<feGaussianBlur in="BackgroundImageFix" stdDeviation="35.9292"/>
<feComposite in2="SourceAlpha" operator="in" result="effect1_backgroundBlur_231_3348"/>
<feBlend mode="normal" in="SourceGraphic" in2="effect1_backgroundBlur_231_3348" result="shape"/>
<feColorMatrix in="SourceAlpha" type="matrix" values="0 0 0 0 0 0 0 0 0 0 0 0 0 0 0 0 0 0 127 0" result="hardAlpha"/>
<feOffset dy="23.9528"/>
<feGaussianBlur stdDeviation="17.9646"/>
<feComposite in2="hardAlpha" operator="arithmetic" k2="-1" k3="1"/>
<feColorMatrix type="matrix" values="0 0 0 0 1 0 0 0 0 1 0 0 0 0 1 0 0 0 0.15 0"/>
<feBlend mode="normal" in2="shape" result="effect2_innerShadow_231_3348"/>
</filter>
<filter id="filter1_i_231_3348" x="23.4091" y="23.4089" width="159.182" height="183.135" filterUnits="userSpaceOnUse" color-interpolation-filters="sRGB">
<feFlood flood-opacity="0" result="BackgroundImageFix"/>
<feBlend mode="normal" in="SourceGraphic" in2="BackgroundImageFix" result="shape"/>
<feColorMatrix in="SourceAlpha" type="matrix" values="0 0 0 0 0 0 0 0 0 0 0 0 0 0 0 0 0 0 127 0" result="hardAlpha"/>
<feOffset dy="23.9528"/>
<feGaussianBlur stdDeviation="11.9764"/>
<feComposite in2="hardAlpha" operator="arithmetic" k2="-1" k3="1"/>
<feColorMatrix type="matrix" values="0 0 0 0 1 0 0 0 0 1 0 0 0 0 1 0 0 0 0.1 0"/>
<feBlend mode="normal" in2="shape" result="effect1_innerShadow_231_3348"/>
</filter>
<linearGradient id="paint0_linear_231_3348" x1="0" y1="0" x2="242.662" y2="61.6163" gradientUnits="userSpaceOnUse">
<stop stop-color="white"/>
<stop offset="1" stop-color="#06115D"/>
</linearGradient>
<linearGradient id="paint1_linear_231_3348" x1="6.4375" y1="9.36364" x2="206" y2="9.36364" gradientUnits="userSpaceOnUse">
<stop stop-color="#FF99E7"/>
<stop offset="1" stop-color="#5DF4CE"/>
</linearGradient>
<linearGradient id="paint2_linear_231_3348" x1="103" y1="23.4089" x2="103" y2="182.591" gradientUnits="userSpaceOnUse">
<stop stop-color="white"/>
<stop offset="1" stop-color="white" stop-opacity="0"/>
</linearGradient>
</defs>
</svg>
