<svg width="30" height="30" viewBox="0 0 30 30" fill="none" xmlns="http://www.w3.org/2000/svg">
<rect width="30" height="30" rx="5" fill="white"/>
<path d="M22.2477 9.16695C21.0825 8.62179 19.8367 8.2256 18.5342 8C18.3742 8.28921 18.1873 8.6782 18.0585 8.98764C16.6739 8.77941 15.302 8.77941 13.9429 8.98764C13.814 8.6782 13.6229 8.28921 13.4615 8C12.1576 8.2256 10.9103 8.62325 9.74514 9.16984C7.39498 12.7212 6.75789 16.1844 7.07644 19.5984C8.63519 20.7625 10.1458 21.4696 11.6309 21.9323C11.9976 21.4277 12.3247 20.8912 12.6064 20.3258C12.0698 20.1219 11.5559 19.8703 11.0703 19.5782C11.1991 19.4828 11.3251 19.383 11.4469 19.2803C14.4086 20.6656 17.6267 20.6656 20.5531 19.2803C20.6762 19.383 20.8022 19.4828 20.9296 19.5782C20.4426 19.8717 19.9273 20.1233 19.3907 20.3273C19.6724 20.8912 19.9981 21.4291 20.3662 21.9338C21.8527 21.471 23.3647 20.7639 24.9235 19.5984C25.2973 15.6407 24.285 12.2093 22.2477 9.16695ZM13.0099 17.4989C12.1208 17.4989 11.3917 16.6688 11.3917 15.6581C11.3917 14.6473 12.1052 13.8159 13.0099 13.8159C13.9146 13.8159 14.6437 14.6459 14.6281 15.6581C14.6295 16.6688 13.9146 17.4989 13.0099 17.4989ZM18.9901 17.4989C18.101 17.4989 17.3718 16.6688 17.3718 15.6581C17.3718 14.6473 18.0854 13.8159 18.9901 13.8159C19.8947 13.8159 20.6238 14.6459 20.6083 15.6581C20.6083 16.6688 19.8947 17.4989 18.9901 17.4989Z" fill="url(#paint0_linear_120_3771)"/>
<defs>
<linearGradient id="paint0_linear_120_3771" x1="13.3757" y1="9.78747" x2="16.8873" y2="21.3454" gradientUnits="userSpaceOnUse">
<stop stop-color="#1AEFED"/>
<stop offset="1" stop-color="#1047D6"/>
</linearGradient>
</defs>
</svg>
