<svg width="30" height="30" viewBox="0 0 30 30" fill="none" xmlns="http://www.w3.org/2000/svg">
<g clip-path="url(#clip0_120_3775)">
<rect width="30" height="30" rx="5" fill="url(#paint0_linear_120_3775)"/>
<path fill-rule="evenodd" clip-rule="evenodd" d="M0 0V30H30V0H0ZM25.3724 6.63824L21.8476 23.5923C21.7646 23.9926 21.2953 24.1739 20.9641 23.9333L16.1525 20.44C15.8604 20.2279 15.4621 20.2392 15.1825 20.4672L12.5148 22.6418C12.2053 22.8949 11.7387 22.7538 11.6202 22.3726L9.7678 16.4153L4.98211 14.6293C4.49598 14.4471 4.49182 13.7608 4.97657 13.5741L24.6171 5.9973C25.0335 5.83629 25.4631 6.20103 25.3724 6.63824Z" fill="white"/>
<path fill-rule="evenodd" clip-rule="evenodd" d="M20.6747 9.70406L11.3217 15.4645C10.9632 15.6857 10.7945 16.1187 10.9101 16.524L11.9214 20.0772C11.9933 20.3289 12.3586 20.3032 12.3936 20.0431L12.6564 18.0946C12.706 17.7277 12.881 17.3895 13.1524 17.1371L20.8712 9.962C21.0157 9.82815 20.8427 9.60088 20.6747 9.70406Z" fill="white"/>
</g>
<defs>
<linearGradient id="paint0_linear_120_3775" x1="10.6262" y1="3.8485" x2="19.8706" y2="27.402" gradientUnits="userSpaceOnUse">
<stop stop-color="#1AEFED"/>
<stop offset="1" stop-color="#1047D6"/>
</linearGradient>
<clipPath id="clip0_120_3775">
<rect width="30" height="30" rx="5" fill="white"/>
</clipPath>
</defs>
</svg>
