<svg width="207" height="206" viewBox="0 0 207 206" fill="none" xmlns="http://www.w3.org/2000/svg">
<g filter="url(#filter0_bi_223_3339)">
<path d="M103.5 206C160.385 206 206.5 159.885 206.5 103C206.5 46.1147 160.385 0 103.5 0C46.6147 0 0.5 46.1147 0.5 103C0.5 159.885 46.6147 206 103.5 206Z" fill="white" fill-opacity="0.05"/>
<path d="M103.5 206C160.385 206 206.5 159.885 206.5 103C206.5 46.1147 160.385 0 103.5 0C46.6147 0 0.5 46.1147 0.5 103C0.5 159.885 46.6147 206 103.5 206Z" fill="url(#paint0_linear_223_3339)" fill-opacity="0.35"/>
<path d="M204.704 103C204.704 158.893 159.393 204.204 103.5 204.204C47.6068 204.204 2.29646 158.893 2.29646 103C2.29646 47.1068 47.6068 1.79646 103.5 1.79646C159.393 1.79646 204.704 47.1068 204.704 103Z" stroke="url(#paint1_linear_223_3339)" stroke-opacity="0.1" stroke-width="3.59292"/>
</g>
<g filter="url(#filter1_i_223_3339)">
<path d="M103.5 182.591C147.457 182.591 183.091 146.957 183.091 103C183.091 59.043 147.457 23.4089 103.5 23.4089C59.5431 23.4089 23.9091 59.043 23.9091 103C23.9091 146.957 59.5431 182.591 103.5 182.591Z" fill="url(#paint2_linear_223_3339)" fill-opacity="0.8"/>
</g>
<defs>
<filter id="filter0_bi_223_3339" x="-71.3584" y="-71.8584" width="349.717" height="349.717" filterUnits="userSpaceOnUse" color-interpolation-filters="sRGB">
<feFlood flood-opacity="0" result="BackgroundImageFix"/>
<feGaussianBlur in="BackgroundImageFix" stdDeviation="35.9292"/>
<feComposite in2="SourceAlpha" operator="in" result="effect1_backgroundBlur_223_3339"/>
<feBlend mode="normal" in="SourceGraphic" in2="effect1_backgroundBlur_223_3339" result="shape"/>
<feColorMatrix in="SourceAlpha" type="matrix" values="0 0 0 0 0 0 0 0 0 0 0 0 0 0 0 0 0 0 127 0" result="hardAlpha"/>
<feOffset dy="23.9528"/>
<feGaussianBlur stdDeviation="17.9646"/>
<feComposite in2="hardAlpha" operator="arithmetic" k2="-1" k3="1"/>
<feColorMatrix type="matrix" values="0 0 0 0 1 0 0 0 0 1 0 0 0 0 1 0 0 0 0.15 0"/>
<feBlend mode="normal" in2="shape" result="effect2_innerShadow_223_3339"/>
</filter>
<filter id="filter1_i_223_3339" x="23.9091" y="23.4089" width="159.182" height="183.135" filterUnits="userSpaceOnUse" color-interpolation-filters="sRGB">
<feFlood flood-opacity="0" result="BackgroundImageFix"/>
<feBlend mode="normal" in="SourceGraphic" in2="BackgroundImageFix" result="shape"/>
<feColorMatrix in="SourceAlpha" type="matrix" values="0 0 0 0 0 0 0 0 0 0 0 0 0 0 0 0 0 0 127 0" result="hardAlpha"/>
<feOffset dy="23.9528"/>
<feGaussianBlur stdDeviation="11.9764"/>
<feComposite in2="hardAlpha" operator="arithmetic" k2="-1" k3="1"/>
<feColorMatrix type="matrix" values="0 0 0 0 1 0 0 0 0 1 0 0 0 0 1 0 0 0 0.1 0"/>
<feBlend mode="normal" in2="shape" result="effect1_innerShadow_223_3339"/>
</filter>
<linearGradient id="paint0_linear_223_3339" x1="0.5" y1="0" x2="243.162" y2="61.6163" gradientUnits="userSpaceOnUse">
<stop stop-color="white"/>
<stop offset="1" stop-color="#FF0000"/>
</linearGradient>
<linearGradient id="paint1_linear_223_3339" x1="6.9375" y1="9.36364" x2="206.5" y2="9.36364" gradientUnits="userSpaceOnUse">
<stop stop-color="#FF99E7"/>
<stop offset="1" stop-color="#5DF4CE"/>
</linearGradient>
<linearGradient id="paint2_linear_223_3339" x1="103.5" y1="23.4089" x2="103.5" y2="182.591" gradientUnits="userSpaceOnUse">
<stop stop-color="white"/>
<stop offset="1" stop-color="white" stop-opacity="0"/>
</linearGradient>
</defs>
</svg>
