<svg width="68" height="28" viewBox="0 0 68 28" fill="none" xmlns="http://www.w3.org/2000/svg">
<rect x="0.594238" width="66.5944" height="27.1206" rx="6.10214" fill="white"/>
<path d="M14.8835 16.7027C13.928 16.7027 13.1433 16.3736 12.5295 15.7155C11.922 15.051 11.6182 14.2094 11.6182 13.1906C11.6182 12.1654 11.9156 11.3174 12.5105 10.6467C13.1053 9.97587 13.8932 9.64048 14.874 9.64048C15.6841 9.64048 16.3327 9.85563 16.82 10.2859C17.3135 10.7099 17.5983 11.2573 17.6743 11.9281H16.3074C16.2441 11.5801 16.0859 11.3048 15.8328 11.1023C15.586 10.8998 15.2664 10.7985 14.874 10.7985C14.2729 10.7985 13.8141 11.02 13.4977 11.463C13.1813 11.906 13.0231 12.4818 13.0231 13.1906C13.0231 13.893 13.1908 14.4657 13.5262 14.9087C13.8679 15.3516 14.3203 15.5731 14.8835 15.5731C15.2822 15.5731 15.6144 15.4655 15.8802 15.2504C16.146 15.0289 16.301 14.7378 16.3453 14.3771H17.6932C17.6553 15.0162 17.4053 15.551 16.9434 15.9813C16.4308 16.4622 15.7442 16.7027 14.8835 16.7027ZM18.4854 16.5603V9.77337H19.7763V16.5603H18.4854ZM23.8617 16.5603C23.7984 16.478 23.7478 16.2977 23.7098 16.0192H23.6909C23.5516 16.2281 23.3745 16.3894 23.1593 16.5033C22.9441 16.6173 22.6436 16.6742 22.2575 16.6742C21.745 16.6742 21.3336 16.5445 21.0236 16.285C20.7135 16.0256 20.5584 15.6585 20.5584 15.1839C20.5584 14.6903 20.7293 14.3296 21.071 14.1018C21.4127 13.8677 21.8937 13.7063 22.5138 13.6177C22.9695 13.5544 23.2795 13.4912 23.4441 13.4279C23.6086 13.3583 23.6909 13.238 23.6909 13.0672C23.6909 12.89 23.6213 12.7508 23.482 12.6495C23.3428 12.5419 23.1403 12.4881 22.8745 12.4881C22.286 12.4881 21.9728 12.716 21.9348 13.1716H20.7862C20.8052 12.7096 20.9919 12.3268 21.3463 12.023C21.7007 11.7193 22.2132 11.5674 22.884 11.5674C24.2509 11.5674 24.9343 12.1654 24.9343 13.3614V15.8389C24.9343 16.2059 24.9913 16.4306 25.1052 16.5128V16.5603H23.8617ZM22.5708 15.7724C22.9252 15.7724 23.2036 15.6807 23.4061 15.4972C23.6149 15.3137 23.7193 15.0953 23.7193 14.8422V14.1113C23.5801 14.1936 23.2795 14.2885 22.8176 14.3961C22.4505 14.4783 22.1911 14.5733 22.0392 14.6808C21.8873 14.7821 21.8114 14.9403 21.8114 15.1555C21.8114 15.5668 22.0645 15.7724 22.5708 15.7724ZM25.9246 16.5603V11.6908H27.2155V16.5603H25.9246ZM25.9246 10.9314V9.77337H27.2155V10.9314H25.9246ZM28.2168 16.5603V11.6908H29.4603V12.3458H29.4888C29.7989 11.8205 30.2703 11.5579 30.9031 11.5579C31.2069 11.5579 31.4758 11.637 31.71 11.7952C31.9504 11.9471 32.1308 12.1527 32.251 12.4122H32.27C32.6244 11.8427 33.1117 11.5579 33.7318 11.5579C34.2381 11.5579 34.6304 11.7129 34.9088 12.023C35.1936 12.3268 35.336 12.7476 35.336 13.2855V16.5603H34.0451V13.5038C34.0451 12.9469 33.7951 12.6685 33.2952 12.6685C33.0231 12.6685 32.8079 12.7666 32.6497 12.9628C32.4978 13.1526 32.4219 13.4089 32.4219 13.7316V16.5603H31.1309V13.5038C31.1309 12.9469 30.881 12.6685 30.3811 12.6685C30.1216 12.6685 29.9096 12.7666 29.7451 12.9628C29.5869 13.1526 29.5078 13.4089 29.5078 13.7316V16.5603H28.2168ZM38.5903 16.7027C37.8056 16.7027 37.1886 16.4622 36.7393 15.9813C36.29 15.494 36.0654 14.8739 36.0654 14.1208C36.0654 13.3931 36.29 12.7856 36.7393 12.2983C37.1886 11.8047 37.7645 11.5579 38.4669 11.5579C39.2326 11.5579 39.8243 11.8237 40.242 12.3553C40.6596 12.8868 40.8685 13.5987 40.8685 14.491H37.3373C37.388 14.877 37.5177 15.1776 37.7265 15.3928C37.9354 15.6016 38.2201 15.706 38.5808 15.706C39.0554 15.706 39.3687 15.5067 39.5206 15.108H40.7925C40.6976 15.5636 40.4571 15.9433 40.0711 16.2471C39.6851 16.5508 39.1915 16.7027 38.5903 16.7027ZM38.4859 12.5546C37.8594 12.5546 37.4829 12.9026 37.3563 13.5987H39.5206C39.5016 13.2887 39.3972 13.0387 39.2073 12.8488C39.0175 12.6527 38.777 12.5546 38.4859 12.5546ZM43.458 16.7027C42.8441 16.7027 42.3474 16.4717 41.9677 16.0098C41.588 15.5415 41.3981 14.915 41.3981 14.1303C41.3981 13.3709 41.5911 12.7539 41.9772 12.2793C42.3695 11.7984 42.8694 11.5579 43.4769 11.5579C44.0844 11.5579 44.5432 11.7984 44.8533 12.2793H44.8818V9.77337H46.1727V16.5603H44.9292V15.9243H44.9103C44.5939 16.4432 44.1098 16.7027 43.458 16.7027ZM43.7427 15.6206C44.1224 15.6206 44.4103 15.4908 44.6065 15.2314C44.809 14.9719 44.9103 14.6144 44.9103 14.1588C44.9103 13.121 44.5337 12.602 43.7807 12.602C43.4326 12.602 43.1669 12.7413 42.9833 13.0197C42.7998 13.2981 42.7081 13.6683 42.7081 14.1303C42.7081 14.6049 42.7967 14.9719 42.9738 15.2314C43.1574 15.4908 43.4137 15.6206 43.7427 15.6206Z" fill="black"/>
<path d="M52.8352 9.49219L51.8792 10.4482L54.9845 13.5603L51.8792 16.6724L52.8352 17.6284L56.9032 13.5603L52.8352 9.49219Z" fill="black"/>
</svg>
