<svg width="73" height="23" viewBox="0 0 73 23" fill="none" xmlns="http://www.w3.org/2000/svg">
<g filter="url(#filter0_b_223_2741)">
<rect width="73" height="23" rx="11.5" fill="url(#paint0_linear_223_2741)"/>
<path d="M19.3334 13.5417H22.7634C22.9209 13.3608 23.1542 13.25 23.4167 13.25C23.9009 13.25 24.2917 13.6408 24.2917 14.125C24.2917 14.6092 23.9009 15 23.4167 15C23.16 15 22.9267 14.8892 22.7634 14.7083H20.4417C20.1734 16.0383 18.995 17.0417 17.5834 17.0417C15.9734 17.0417 14.6667 15.735 14.6667 14.125C14.6667 12.7133 15.67 11.535 17 11.2667V12.4742C16.3234 12.7133 15.8334 13.3667 15.8334 14.125C15.8334 15.0875 16.6209 15.875 17.5834 15.875C18.5459 15.875 19.3334 15.0875 19.3334 14.125V13.5417ZM20.7917 7.12499C21.7542 7.12499 22.5417 7.9125 22.5417 8.875H23.7084C23.7084 7.26499 22.4017 5.95833 20.7917 5.95833C19.1817 5.95833 17.875 7.26499 17.875 8.875C17.875 9.70916 18.225 10.4558 18.7792 10.9867L17.4084 13.2617C17.0117 13.3433 16.7084 13.6992 16.7084 14.125C16.7084 14.6092 17.0992 15 17.5834 15C18.0675 15 18.4584 14.6092 18.4584 14.125C18.4584 14.0317 18.4467 13.9442 18.4175 13.8625L20.3892 10.5783C19.6192 10.3975 19.0417 9.70333 19.0417 8.875C19.0417 7.9125 19.8292 7.12499 20.7917 7.12499ZM23.4167 12.375C23.0434 12.375 22.6992 12.4917 22.4134 12.69L20.6342 9.7325C20.2259 9.6625 19.9167 9.30666 19.9167 8.875C19.9167 8.39083 20.3075 7.99999 20.7917 7.99999C21.2759 7.99999 21.6667 8.39083 21.6667 8.875C21.6667 8.9625 21.655 9.04416 21.6317 9.12583L22.9092 11.255C23.0725 11.2258 23.2417 11.2083 23.4167 11.2083C25.0267 11.2083 26.3334 12.515 26.3334 14.125C26.3334 15.735 25.0267 17.0417 23.4167 17.0417C22.3375 17.0417 21.3925 16.4525 20.8909 15.5833H22.4484C22.7284 15.77 23.0609 15.875 23.4167 15.875C24.3792 15.875 25.1667 15.0875 25.1667 14.125C25.1667 13.1625 24.3792 12.375 23.4167 12.375Z" fill="white" fill-opacity="0.87"/>
<path d="M36.8348 14.6567C35.7835 14.6567 34.9202 14.2946 34.2448 13.5705C33.5764 12.8395 33.2423 11.9135 33.2423 10.7926C33.2423 9.66469 33.5695 8.73175 34.2239 7.99374C34.8784 7.25574 35.7452 6.88674 36.8243 6.88674C37.7155 6.88674 38.4292 7.12346 38.9653 7.59689C39.5083 8.06337 39.8216 8.6656 39.9052 9.40361H38.4013C38.3317 9.02068 38.1576 8.71782 37.8791 8.49503C37.6076 8.27224 37.256 8.16084 36.8243 8.16084C36.1629 8.16084 35.6582 8.40452 35.3101 8.89188C34.9619 9.37924 34.7879 10.0128 34.7879 10.7926C34.7879 11.5654 34.9724 12.1955 35.3414 12.6828C35.7173 13.1702 36.2151 13.4139 36.8348 13.4139C37.2734 13.4139 37.6389 13.2955 37.9314 13.0588C38.2238 12.8151 38.3943 12.4949 38.4431 12.098H39.926C39.8843 12.8012 39.6093 13.3895 39.101 13.863C38.5371 14.3921 37.7817 14.6567 36.8348 14.6567ZM40.6111 14.5V7.03295H42.0314V14.5H40.6111ZM46.3397 14.5C46.2701 14.4095 46.2144 14.2111 46.1726 13.9047H46.1517C45.9985 14.1345 45.8036 14.312 45.5669 14.4373C45.3302 14.5627 44.9995 14.6253 44.5748 14.6253C44.0108 14.6253 43.5583 14.4826 43.2171 14.1971C42.876 13.9117 42.7054 13.5079 42.7054 12.9857C42.7054 12.4426 42.8934 12.0458 43.2693 11.7952C43.6453 11.5375 44.1744 11.36 44.8567 11.2625C45.358 11.1929 45.6992 11.1233 45.8802 11.0537C46.0612 10.9771 46.1517 10.8448 46.1517 10.6568C46.1517 10.4619 46.0751 10.3087 45.922 10.1973C45.7688 10.0789 45.546 10.0198 45.2536 10.0198C44.6061 10.0198 44.2615 10.2704 44.2197 10.7717H42.956C42.9769 10.2634 43.1823 9.84223 43.5722 9.50804C43.9621 9.17385 44.526 9.00676 45.264 9.00676C46.7679 9.00676 47.5198 9.66469 47.5198 10.9806V13.7063C47.5198 14.1101 47.5825 14.3573 47.7078 14.4478V14.5H46.3397ZM44.9194 13.6332C45.3093 13.6332 45.6156 13.5322 45.8384 13.3303C46.0682 13.1284 46.183 12.8882 46.183 12.6097V11.8056C46.0299 11.8961 45.6992 12.0005 45.1909 12.1189C44.7871 12.2094 44.5017 12.3138 44.3346 12.4322C44.1675 12.5436 44.0839 12.7177 44.0839 12.9544C44.0839 13.4069 44.3624 13.6332 44.9194 13.6332ZM48.4228 14.5V9.14252H49.8431V14.5H48.4228ZM48.4228 8.30705V7.03295H49.8431V8.30705H48.4228ZM50.7582 14.5V9.14252H52.1263V9.86312H52.1577C52.4988 9.28525 53.0175 8.99631 53.7137 8.99631C54.0479 8.99631 54.3438 9.08334 54.6014 9.2574C54.866 9.42449 55.0644 9.65077 55.1967 9.93622H55.2176C55.6075 9.30962 56.1436 8.99631 56.8259 8.99631C57.3829 8.99631 57.8145 9.16689 58.1209 9.50804C58.4342 9.84223 58.5908 10.3052 58.5908 10.897V14.5H57.1705V11.1372C57.1705 10.5245 56.8955 10.2182 56.3455 10.2182C56.0461 10.2182 55.8094 10.3261 55.6353 10.5419C55.4682 10.7508 55.3847 11.0328 55.3847 11.3879V14.5H53.9644V11.1372C53.9644 10.5245 53.6894 10.2182 53.1393 10.2182C52.8539 10.2182 52.6207 10.3261 52.4396 10.5419C52.2656 10.7508 52.1786 11.0328 52.1786 11.3879V14.5H50.7582Z" fill="white"/>
</g>
<defs>
<filter id="filter0_b_223_2741" x="-86.8893" y="-86.8893" width="246.779" height="196.779" filterUnits="userSpaceOnUse" color-interpolation-filters="sRGB">
<feFlood flood-opacity="0" result="BackgroundImageFix"/>
<feGaussianBlur in="BackgroundImageFix" stdDeviation="43.4446"/>
<feComposite in2="SourceAlpha" operator="in" result="effect1_backgroundBlur_223_2741"/>
<feBlend mode="normal" in="SourceGraphic" in2="effect1_backgroundBlur_223_2741" result="shape"/>
</filter>
<linearGradient id="paint0_linear_223_2741" x1="-84.9105" y1="11.9446" x2="73" y2="11.9446" gradientUnits="userSpaceOnUse">
<stop stop-color="#06115D"/>
<stop offset="0.475203" stop-color="#0361DA"/>
<stop offset="0.99589" stop-color="#20A5EF"/>
</linearGradient>
</defs>
</svg>
