<svg width="56" height="28" viewBox="0 0 56 28" fill="none" xmlns="http://www.w3.org/2000/svg">
<rect width="55.5944" height="27.1206" rx="6.10214" fill="#1AE2EF"/>
<path d="M14.168 16.7027C13.2125 16.7027 12.4278 16.3736 11.8139 15.7155C11.2064 15.051 10.9027 14.2094 10.9027 13.1906C10.9027 12.1654 11.2001 11.3174 11.795 10.6467C12.3898 9.97587 13.1777 9.64048 14.1585 9.64048C14.9685 9.64048 15.6172 9.85563 16.1044 10.2859C16.598 10.7099 16.8828 11.2573 16.9587 11.9281H15.5918C15.5286 11.5801 15.3704 11.3048 15.1172 11.1023C14.8704 10.8998 14.5509 10.7985 14.1585 10.7985C13.5573 10.7985 13.0985 11.02 12.7821 11.463C12.4657 11.906 12.3075 12.4818 12.3075 13.1906C12.3075 13.893 12.4752 14.4657 12.8106 14.9087C13.1523 15.3516 13.6048 15.5731 14.168 15.5731C14.5667 15.5731 14.8989 15.4655 15.1647 15.2504C15.4305 15.0289 15.5855 14.7378 15.6298 14.3771H16.9777C16.9397 15.0162 16.6898 15.551 16.2278 15.9813C15.7152 16.4622 15.0286 16.7027 14.168 16.7027ZM17.7698 16.5603V9.77337H19.0608V16.5603H17.7698ZM23.1462 16.5603C23.0829 16.478 23.0323 16.2977 22.9943 16.0192H22.9753C22.8361 16.2281 22.6589 16.3894 22.4438 16.5033C22.2286 16.6173 21.928 16.6742 21.542 16.6742C21.0294 16.6742 20.6181 16.5445 20.308 16.285C19.9979 16.0256 19.8429 15.6585 19.8429 15.1839C19.8429 14.6903 20.0138 14.3296 20.3555 14.1018C20.6972 13.8677 21.1781 13.7063 21.7983 13.6177C22.2539 13.5544 22.564 13.4912 22.7285 13.4279C22.8931 13.3583 22.9753 13.238 22.9753 13.0672C22.9753 12.89 22.9057 12.7508 22.7665 12.6495C22.6273 12.5419 22.4248 12.4881 22.159 12.4881C21.5705 12.4881 21.2572 12.716 21.2193 13.1716H20.0707C20.0897 12.7096 20.2764 12.3268 20.6308 12.023C20.9851 11.7193 21.4977 11.5674 22.1685 11.5674C23.5354 11.5674 24.2188 12.1654 24.2188 13.3614V15.8389C24.2188 16.2059 24.2758 16.4306 24.3897 16.5128V16.5603H23.1462ZM21.8552 15.7724C22.2096 15.7724 22.4881 15.6807 22.6906 15.4972C22.8994 15.3137 23.0038 15.0953 23.0038 14.8422V14.1113C22.8646 14.1936 22.564 14.2885 22.102 14.3961C21.735 14.4783 21.4756 14.5733 21.3237 14.6808C21.1718 14.7821 21.0959 14.9403 21.0959 15.1555C21.0959 15.5668 21.349 15.7724 21.8552 15.7724ZM25.209 16.5603V11.6908H26.5V16.5603H25.209ZM25.209 10.9314V9.77337H26.5V10.9314H25.209ZM27.5013 16.5603V11.6908H28.7448V12.3458H28.7733C29.0833 11.8205 29.5548 11.5579 30.1876 11.5579C30.4913 11.5579 30.7603 11.637 30.9944 11.7952C31.2349 11.9471 31.4153 12.1527 31.5355 12.4122H31.5545C31.9088 11.8427 32.3961 11.5579 33.0163 11.5579C33.5225 11.5579 33.9149 11.7129 34.1933 12.023C34.4781 12.3268 34.6205 12.7476 34.6205 13.2855V16.5603H33.3295V13.5038C33.3295 12.9469 33.0796 12.6685 32.5796 12.6685C32.3075 12.6685 32.0924 12.7666 31.9342 12.9628C31.7823 13.1526 31.7063 13.4089 31.7063 13.7316V16.5603H30.4154V13.5038C30.4154 12.9469 30.1654 12.6685 29.6655 12.6685C29.4061 12.6685 29.1941 12.7666 29.0295 12.9628C28.8713 13.1526 28.7922 13.4089 28.7922 13.7316V16.5603H27.5013Z" fill="#000E50"/>
<path d="M41.2409 9.49219L40.2849 10.4482L43.3902 13.5603L40.2849 16.6724L41.2409 17.6284L45.309 13.5603L41.2409 9.49219Z" fill="#000E50"/>
</svg>
