<svg width="66" height="28" viewBox="0 0 66 28" fill="none" xmlns="http://www.w3.org/2000/svg">
<rect x="0.188721" width="65" height="27.1206" rx="6.10214" fill="#FF5757"/>
<path d="M10.8004 16.5603V9.77337H12.1767V15.4117H15.3661V16.5603H10.8004ZM20.2137 15.9718C19.739 16.4591 19.1284 16.7027 18.3817 16.7027C17.6349 16.7027 17.0243 16.4591 16.5497 15.9718C16.075 15.4782 15.8377 14.8644 15.8377 14.1303C15.8377 13.3962 16.075 12.7856 16.5497 12.2983C17.0243 11.8047 17.6349 11.5579 18.3817 11.5579C19.1284 11.5579 19.739 11.8047 20.2137 12.2983C20.6883 12.7856 20.9256 13.3962 20.9256 14.1303C20.9256 14.8644 20.6883 15.4782 20.2137 15.9718ZM18.3817 15.7155C18.7677 15.7155 19.0683 15.5731 19.2834 15.2883C19.5049 14.9973 19.6156 14.6112 19.6156 14.1303C19.6156 13.6494 19.5049 13.2633 19.2834 12.9722C19.0683 12.6811 18.7677 12.5356 18.3817 12.5356C17.9893 12.5356 17.6856 12.6811 17.4704 12.9722C17.2552 13.257 17.1477 13.643 17.1477 14.1303C17.1477 14.6112 17.2552 14.9973 17.4704 15.2883C17.6856 15.5731 17.9893 15.7155 18.3817 15.7155ZM23.9543 16.7027C23.2013 16.7027 22.5969 16.4591 22.1413 15.9718C21.6857 15.4845 21.4579 14.8707 21.4579 14.1303C21.4579 13.3899 21.6793 12.7761 22.1223 12.2888C22.5716 11.8015 23.1601 11.5579 23.8879 11.5579C24.5017 11.5579 25.0016 11.7193 25.3876 12.042C25.7737 12.3647 26.011 12.7982 26.0996 13.3424H24.8371C24.7928 13.121 24.6915 12.9406 24.5333 12.8014C24.3751 12.6622 24.179 12.5926 23.9448 12.5926C23.5651 12.5926 23.274 12.7286 23.0715 13.0007C22.869 13.2728 22.7678 13.6494 22.7678 14.1303C22.7678 14.6049 22.8659 14.9814 23.062 15.2599C23.2582 15.532 23.5461 15.668 23.9258 15.668C24.489 15.668 24.8149 15.3928 24.9035 14.8422H26.147C26.1027 15.3801 25.8844 15.8262 25.492 16.1806C25.0997 16.5287 24.5871 16.7027 23.9543 16.7027ZM30.088 16.5603L28.7211 14.3391L28.161 14.9181V16.5603H26.8796V9.77337H28.161V13.5323L29.8886 11.6908H31.4359L29.6418 13.5418L31.6542 16.5603H30.088ZM34.1848 16.7027C33.4001 16.7027 32.7831 16.4622 32.3338 15.9813C31.8845 15.494 31.6599 14.8739 31.6599 14.1208C31.6599 13.3931 31.8845 12.7856 32.3338 12.2983C32.7831 11.8047 33.359 11.5579 34.0614 11.5579C34.8271 11.5579 35.4188 11.8237 35.8364 12.3553C36.2541 12.8868 36.4629 13.5987 36.4629 14.491H32.9318C32.9825 14.877 33.1122 15.1776 33.321 15.3928C33.5298 15.6016 33.8146 15.706 34.1753 15.706C34.6499 15.706 34.9632 15.5067 35.115 15.108H36.387C36.2921 15.5636 36.0516 15.9433 35.6656 16.2471C35.2796 16.5508 34.786 16.7027 34.1848 16.7027ZM34.0804 12.5546C33.4539 12.5546 33.0774 12.9026 32.9508 13.5987H35.115C35.0961 13.2887 34.9916 13.0387 34.8018 12.8488C34.612 12.6527 34.3715 12.5546 34.0804 12.5546ZM39.0524 16.7027C38.4386 16.7027 37.9418 16.4717 37.5622 16.0098C37.1825 15.5415 36.9926 14.915 36.9926 14.1303C36.9926 13.3709 37.1856 12.7539 37.5716 12.2793C37.964 11.7984 38.4639 11.5579 39.0714 11.5579C39.6789 11.5579 40.1377 11.7984 40.4478 12.2793H40.4763V9.77337H41.7672V16.5603H40.5237V15.9243H40.5047C40.1883 16.4432 39.7042 16.7027 39.0524 16.7027ZM39.3372 15.6206C39.7169 15.6206 40.0048 15.4908 40.201 15.2314C40.4035 14.9719 40.5047 14.6144 40.5047 14.1588C40.5047 13.121 40.1282 12.602 39.3752 12.602C39.0271 12.602 38.7613 12.7413 38.5778 13.0197C38.3943 13.2981 38.3025 13.6683 38.3025 14.1303C38.3025 14.6049 38.3911 14.9719 38.5683 15.2314C38.7518 15.4908 39.0081 15.6206 39.3372 15.6206Z" fill="black"/>
<path d="M54.4287 12.8404H53.7087V11.4004C53.7087 9.9964 52.5927 8.8804 51.1887 8.8804C49.7847 8.8804 48.6687 9.9964 48.6687 11.4004V12.8404H47.9487V11.4004C47.9487 9.6004 49.3887 8.1604 51.1887 8.1604C52.9887 8.1604 54.4287 9.6004 54.4287 11.4004V12.8404Z" fill="black"/>
<path d="M54.0688 18.9602H48.3088C47.6968 18.9602 47.2288 18.4922 47.2288 17.8802V13.5602C47.2288 12.9482 47.6968 12.4802 48.3088 12.4802H54.0688C54.6808 12.4802 55.1488 12.9482 55.1488 13.5602V17.8802C55.1488 18.4922 54.6808 18.9602 54.0688 18.9602ZM48.3088 13.2002C48.0928 13.2002 47.9488 13.3442 47.9488 13.5602V17.8802C47.9488 18.0962 48.0928 18.2402 48.3088 18.2402H54.0688C54.2848 18.2402 54.4288 18.0962 54.4288 17.8802V13.5602C54.4288 13.3442 54.2848 13.2002 54.0688 13.2002H48.3088Z" fill="black"/>
<path d="M51.1888 15.3604C51.5864 15.3604 51.9088 15.0381 51.9088 14.6404C51.9088 14.2428 51.5864 13.9204 51.1888 13.9204C50.7911 13.9204 50.4688 14.2428 50.4688 14.6404C50.4688 15.0381 50.7911 15.3604 51.1888 15.3604Z" fill="black"/>
<path d="M51.3687 14.6404H51.0087L50.6487 16.8004H51.7287L51.3687 14.6404Z" fill="black"/>
</svg>
