<svg width="87" height="31" viewBox="0 0 87 31" fill="none" xmlns="http://www.w3.org/2000/svg">
<g filter="url(#filter0_b_223_2747)">
<rect x="1" y="1" width="85" height="29" rx="14.5" fill="#D9D9D9" fill-opacity="0.12"/>
<rect x="1" y="1" width="85" height="29" rx="14.5" stroke="url(#paint0_linear_223_2747)" stroke-width="0.19697"/>
</g>
<path d="M18.0768 18V10.4843H21.5245C22.2463 10.4843 22.8279 10.6771 23.2694 11.0625C23.7179 11.4479 23.9421 11.9524 23.9421 12.5761C23.9421 13.5362 23.4831 14.1423 22.5651 14.3946V14.4261C22.9225 14.5312 23.1888 14.6994 23.364 14.9307C23.5462 15.1549 23.6618 15.4913 23.7109 15.9398C23.7249 16.1079 23.7389 16.3077 23.7529 16.5389C23.7739 16.7632 23.788 16.9419 23.795 17.075C23.809 17.2081 23.823 17.3413 23.837 17.4744C23.858 17.6076 23.8826 17.7127 23.9106 17.7898C23.9456 17.8598 23.9877 17.9054 24.0367 17.9264V18H22.5756C22.5476 17.986 22.5231 17.9615 22.5021 17.9264C22.481 17.8844 22.4635 17.8283 22.4495 17.7582C22.4355 17.6882 22.4215 17.6181 22.4075 17.548C22.4005 17.4709 22.3899 17.3763 22.3759 17.2642C22.3689 17.1451 22.3619 17.0435 22.3549 16.9594C22.3479 16.8683 22.3374 16.7526 22.3234 16.6125C22.3164 16.4653 22.3094 16.3497 22.3023 16.2656C22.2393 15.4107 21.7487 14.9832 20.8307 14.9832H19.6009V18H18.0768ZM19.6009 11.7142V13.8059H21.2197C21.6191 13.8059 21.9239 13.7113 22.1342 13.5221C22.3514 13.3329 22.46 13.0842 22.46 12.7758C22.46 12.4605 22.3584 12.2047 22.1552 12.0085C21.952 11.8123 21.6541 11.7142 21.2617 11.7142H19.6009ZM27.2898 18.1577C26.4209 18.1577 25.7377 17.8914 25.2401 17.3588C24.7426 16.8192 24.4938 16.1325 24.4938 15.2986C24.4938 14.4927 24.7426 13.82 25.2401 13.2804C25.7377 12.7338 26.3754 12.4605 27.1532 12.4605C28.0011 12.4605 28.6563 12.7548 29.1188 13.3434C29.5813 13.9321 29.8126 14.7204 29.8126 15.7085H25.9023C25.9584 16.136 26.1021 16.4688 26.3333 16.7071C26.5646 16.9383 26.8799 17.054 27.2793 17.054C27.8049 17.054 28.1518 16.8332 28.32 16.3918H29.7285C29.6234 16.8963 29.3571 17.3168 28.9296 17.6531C28.5022 17.9895 27.9556 18.1577 27.2898 18.1577ZM27.1742 13.5642C26.4805 13.5642 26.0635 13.9496 25.9234 14.7204H28.32C28.2989 14.3771 28.1833 14.1003 27.9731 13.89C27.7629 13.6728 27.4966 13.5642 27.1742 13.5642ZM30.0562 13.5957V12.6076H30.792V12.1241C30.792 11.4934 31.0093 11.045 31.4437 10.7787C31.8782 10.5124 32.4598 10.4178 33.1886 10.4949V11.5986C32.8312 11.5845 32.579 11.6161 32.4318 11.6932C32.2917 11.7702 32.2216 11.9419 32.2216 12.2082V12.6076H33.1886V13.5957H32.2216V18H30.792V13.5957H30.0562ZM36.2204 18.1577C35.3515 18.1577 34.6683 17.8914 34.1707 17.3588C33.6732 16.8192 33.4244 16.1325 33.4244 15.2986C33.4244 14.4927 33.6732 13.82 34.1707 13.2804C34.6683 12.7338 35.3059 12.4605 36.0838 12.4605C36.9317 12.4605 37.5869 12.7548 38.0494 13.3434C38.5119 13.9321 38.7432 14.7204 38.7432 15.7085H34.8329C34.889 16.136 35.0326 16.4688 35.2639 16.7071C35.4952 16.9383 35.8105 17.054 36.2099 17.054C36.7355 17.054 37.0824 16.8332 37.2506 16.3918H38.6591C38.554 16.8963 38.2877 17.3168 37.8602 17.6531C37.4328 17.9895 36.8862 18.1577 36.2204 18.1577ZM36.1048 13.5642C35.4111 13.5642 34.9941 13.9496 34.854 14.7204H37.2506C37.2295 14.3771 37.1139 14.1003 36.9037 13.89C36.6935 13.6728 36.4272 13.5642 36.1048 13.5642ZM40.7818 12.6076V13.4696H40.8134C40.9815 13.1542 41.1672 12.923 41.3705 12.7758C41.5737 12.6217 41.8295 12.5446 42.1378 12.5446C42.2849 12.5446 42.3971 12.5586 42.4742 12.5866V13.8375H42.4426C41.9591 13.7884 41.5702 13.8935 41.2759 14.1528C40.9815 14.4121 40.8344 14.8185 40.8344 15.3721V18H39.4048V12.6076H40.7818ZM44.467 12.6076V13.4696H44.4985C44.6667 13.1542 44.8524 12.923 45.0556 12.7758C45.2588 12.6217 45.5146 12.5446 45.8229 12.5446C45.9701 12.5446 46.0822 12.5586 46.1593 12.5866V13.8375H46.1278C45.6442 13.7884 45.2553 13.8935 44.961 14.1528C44.6667 14.4121 44.5195 14.8185 44.5195 15.3721V18H43.09V12.6076H44.467ZM50.0163 18C49.9463 17.9089 49.8902 17.7092 49.8482 17.4008H49.8271C49.673 17.6321 49.4767 17.8108 49.2385 17.9369C49.0002 18.0631 48.6674 18.1261 48.2399 18.1261C47.6723 18.1261 47.2168 17.9825 46.8734 17.6952C46.5301 17.4079 46.3584 17.0014 46.3584 16.4758C46.3584 15.9293 46.5476 15.5298 46.926 15.2775C47.3044 15.0183 47.837 14.8396 48.5237 14.7415C49.0283 14.6714 49.3716 14.6013 49.5538 14.5312C49.736 14.4542 49.8271 14.321 49.8271 14.1318C49.8271 13.9356 49.75 13.7814 49.5959 13.6693C49.4417 13.5502 49.2175 13.4906 48.9231 13.4906C48.2714 13.4906 47.9246 13.7429 47.8825 14.2474H46.6106C46.6317 13.7359 46.8384 13.3119 47.2308 12.9755C47.6232 12.6392 48.1909 12.471 48.9337 12.471C50.4473 12.471 51.2041 13.1332 51.2041 14.4577V17.2011C51.2041 17.6076 51.2672 17.8563 51.3933 17.9474V18H50.0163ZM48.5868 17.1276C48.9792 17.1276 49.2875 17.0259 49.5118 16.8227C49.743 16.6195 49.8587 16.3777 49.8587 16.0974V15.2881C49.7045 15.3792 49.3716 15.4843 48.8601 15.6034C48.4536 15.6945 48.1663 15.7996 47.9981 15.9187C47.83 16.0309 47.7459 16.2061 47.7459 16.4443C47.7459 16.8998 48.0262 17.1276 48.5868 17.1276ZM52.134 18V10.4843H53.5635V18H52.134ZM56.6911 18.1577C55.9202 18.1577 55.3176 17.9895 54.8831 17.6531C54.4486 17.3098 54.2104 16.8437 54.1683 16.2551H55.4928C55.5839 16.8508 55.9763 17.1486 56.6701 17.1486C56.9854 17.1486 57.2272 17.0925 57.3953 16.9804C57.5705 16.8683 57.6581 16.7176 57.6581 16.5284C57.6581 16.4583 57.6441 16.3953 57.6161 16.3392C57.5951 16.2831 57.553 16.2341 57.4899 16.192C57.4339 16.143 57.3813 16.1044 57.3323 16.0764C57.2902 16.0484 57.2131 16.0204 57.101 15.9923C56.9889 15.9643 56.9013 15.9433 56.8382 15.9293C56.7822 15.9152 56.6806 15.8977 56.5334 15.8767C56.3933 15.8487 56.2952 15.8276 56.2391 15.8136C55.9448 15.7576 55.703 15.7015 55.5138 15.6454C55.3316 15.5824 55.1389 15.4948 54.9357 15.3827C54.7325 15.2635 54.5783 15.1059 54.4732 14.9096C54.3751 14.7064 54.326 14.4647 54.326 14.1844C54.326 13.6237 54.5292 13.1963 54.9357 12.902C55.3491 12.6076 55.8782 12.4605 56.5229 12.4605C57.2167 12.4605 57.7597 12.6217 58.1522 12.944C58.5516 13.2594 58.7793 13.6938 58.8354 14.2474H57.5425C57.4864 13.7219 57.1396 13.4591 56.5019 13.4591C56.2146 13.4591 55.9868 13.5116 55.8186 13.6167C55.6575 13.7219 55.5769 13.869 55.5769 14.0582C55.5769 14.1213 55.5874 14.1809 55.6084 14.2369C55.6364 14.286 55.6785 14.3315 55.7345 14.3736C55.7976 14.4086 55.8572 14.4401 55.9132 14.4682C55.9693 14.4892 56.0499 14.5137 56.155 14.5417C56.2601 14.5628 56.3512 14.5838 56.4283 14.6048C56.5054 14.6188 56.6105 14.6399 56.7436 14.6679C56.8768 14.6889 56.9819 14.7064 57.059 14.7204C57.2832 14.7695 57.4654 14.815 57.6056 14.8571C57.7527 14.8921 57.9209 14.9552 58.1101 15.0463C58.2993 15.1304 58.4465 15.2285 58.5516 15.3406C58.6637 15.4457 58.7583 15.5929 58.8354 15.7821C58.9195 15.9643 58.9615 16.178 58.9615 16.4233C58.9615 16.9559 58.7513 17.3798 58.3309 17.6952C57.9174 18.0035 57.3708 18.1577 56.6911 18.1577ZM59.5539 14.8361V13.3119H61.0885V14.8361H59.5539ZM59.5539 18V16.4758H61.0885V18H59.5539ZM66.5713 18.1577C65.5973 18.1577 64.858 17.8143 64.3534 17.1276C63.8559 16.4338 63.6001 15.5614 63.5861 14.5102C63.5721 13.1718 63.8664 12.1627 64.469 11.4829C64.9596 10.9293 65.6498 10.6525 66.5398 10.6525C67.2405 10.6525 67.8046 10.8242 68.2321 11.1676C68.6666 11.511 68.9294 11.9594 69.0205 12.513H67.6435C67.5243 12.0015 67.174 11.7457 66.5923 11.7457C66.0808 11.7457 65.6919 11.9279 65.4256 12.2923C65.1663 12.6497 65.0366 13.1542 65.0366 13.8059H65.0577C65.4851 13.3084 66.0492 13.0596 66.75 13.0596C67.4367 13.0596 68.0254 13.3014 68.5159 13.7849C69.0065 14.2684 69.2517 14.8851 69.2517 15.6349C69.2517 16.3707 68.9924 16.9769 68.4739 17.4534C67.9623 17.9229 67.3281 18.1577 66.5713 18.1577ZM66.5188 17.033C66.9042 17.033 67.2265 16.9033 67.4858 16.644C67.7521 16.3777 67.8852 16.0484 67.8852 15.656C67.8852 15.2425 67.7556 14.8991 67.4963 14.6258C67.237 14.3525 66.9147 14.2159 66.5293 14.2159C66.0948 14.2159 65.7514 14.349 65.4991 14.6153C65.2539 14.8746 65.1312 15.218 65.1312 15.6454C65.1312 16.0519 65.2609 16.3847 65.5202 16.644C65.7795 16.9033 66.1123 17.033 66.5188 17.033Z" fill="white"/>
<defs>
<filter id="filter0_b_223_2747" x="-65.7924" y="-65.7924" width="218.585" height="162.585" filterUnits="userSpaceOnUse" color-interpolation-filters="sRGB">
<feFlood flood-opacity="0" result="BackgroundImageFix"/>
<feGaussianBlur in="BackgroundImageFix" stdDeviation="33.347"/>
<feComposite in2="SourceAlpha" operator="in" result="effect1_backgroundBlur_223_2747"/>
<feBlend mode="normal" in="SourceGraphic" in2="effect1_backgroundBlur_223_2747" result="shape"/>
</filter>
<linearGradient id="paint0_linear_223_2747" x1="1" y1="15.5" x2="86" y2="15.5" gradientUnits="userSpaceOnUse">
<stop stop-color="white" stop-opacity="0"/>
<stop offset="1" stop-color="#999999"/>
</linearGradient>
</defs>
</svg>
