<svg width="254" height="191" viewBox="0 0 254 191" fill="none" xmlns="http://www.w3.org/2000/svg">
<path d="M117.176 0.0932007L117.769 0.423791L118.383 0.144855L118.243 0.785374L118.717 1.2606L118.027 1.33292L117.704 1.91145L117.424 1.31226L116.755 1.18828L117.262 0.744053L117.176 0.0932007Z" fill="#FFD200"/>
<path d="M228.457 14.1123L229.125 14.4119L229.761 14.0607L229.664 14.7632L230.224 15.2281L229.491 15.3624L229.2 16.0132L228.845 15.3934L228.112 15.3211L228.607 14.8045L228.457 14.1123Z" fill="#FFD200"/>
<path d="M207.688 56.9861L207.17 57.7919L207.558 58.67L206.599 58.4324L205.856 59.0729L205.791 58.1225L204.929 57.6369L205.856 57.2857L206.06 56.3559L206.707 57.0791L207.688 56.9861Z" fill="#FFD200"/>
<path d="M251.047 59.3726L252.232 60.3024L253.698 59.8891L253.137 61.2528L254 62.4615L252.48 62.3789L251.542 63.536L251.154 62.1206L249.721 61.6247L251.004 60.8396L251.047 59.3726Z" fill="#FFD200"/>
<path d="M234.816 95.5828L234.05 96.3369L234.255 97.3804L233.264 96.9052L232.304 97.4114L232.466 96.3679L231.658 95.6448L232.746 95.4795L233.21 94.5187L233.727 95.4588L234.816 95.5828Z" fill="#FFD200"/>
<path d="M217.237 91.9462L217.549 93.4236L218.993 94.0124L217.625 94.7563L217.484 96.2543L216.331 95.2418L214.79 95.5724L215.447 94.1984L214.639 92.907L216.202 93.0826L217.237 91.9462Z" fill="#FFD200"/>
<path d="M234.999 158.819L237.348 162.951L242.242 163.447L238.857 166.867L239.881 171.485L235.441 169.46L231.184 171.815L231.819 167.135L228.166 163.984L233.005 163.117L234.999 158.819Z" fill="#FFD200"/>
<path d="M182.177 147.279L184.3 150.43L188.212 150.544L185.733 153.457L186.844 157.052L183.19 155.709L179.957 157.817L180.161 154.067L177.068 151.773L180.851 150.812L182.177 147.279Z" fill="#FFD200"/>
<path d="M141.232 166.805L142.266 170.379L145.92 171.598L142.687 173.634L142.611 177.342L139.583 175.039L135.886 176.113L137.244 172.642L135.035 169.594L138.893 169.759L141.232 166.805Z" fill="#FFD200"/>
<path d="M121.703 187.673L122.371 187.963L122.996 187.591L122.92 188.283L123.481 188.738L122.77 188.892L122.489 189.543L122.123 188.934L121.39 188.882L121.875 188.355L121.703 187.673Z" fill="white"/>
<path d="M99.8022 186.961L99.3603 188.448L100.384 189.636L98.7675 189.688L97.8945 191L97.3449 189.543L95.7821 189.151L97.0539 188.2L96.9569 186.651L98.2933 187.518L99.8022 186.961Z" fill="white"/>
<path d="M17.686 173.386L22.148 173.468L24.7563 169.987L26.0604 174.088L30.3176 175.39L26.6532 177.838L26.6747 182.126L23.1073 179.543L18.8716 180.886L20.3266 176.836L17.686 173.386Z" fill="#FFD200"/>
<path d="M40.8369 125.067L39.6513 127.568L41.1279 129.913L38.2826 129.613L36.4072 131.679L35.8252 128.993L33.1954 127.919L35.6851 126.565L35.933 123.838L38.0454 125.687L40.8369 125.067Z" fill="#FFD200"/>
<path d="M25.9742 76.1914L28.0112 79.9519L32.387 80.4788L29.283 83.4954L30.1129 87.6588L26.1682 85.7579L22.2882 87.8035L22.9564 83.6091L19.7339 80.7164L24.0989 80.0242L25.9742 76.1914Z" fill="#FFD200"/>
<path d="M9.50579 103.951L10.1201 104.085L10.5836 103.672L10.6482 104.271L11.1979 104.571L10.6159 104.808L10.4973 105.397L10.077 104.943L9.4519 105.025L9.77524 104.498L9.50579 103.951Z" fill="white"/>
<path d="M-0.000244141 9.84564L1.86431 9.32909L2.47865 7.57281L3.5672 9.11214L5.49643 9.12246L4.31087 10.5895L4.88209 12.3664L3.06065 11.7259L1.48709 12.8003L1.55176 10.9511L-0.000244141 9.84564Z" fill="#FFD200"/>
<path d="M86.8904 11.0958L85.8341 12.821L86.7179 14.629L84.6809 14.1951L83.1612 15.5587L82.9565 13.5752L81.135 12.6041L83.0427 11.8086L83.4415 9.8457L84.821 11.3334L86.8904 11.0958Z" fill="#FFD200"/>
</svg>
