<svg width="116" height="23" viewBox="0 0 116 23" fill="none" xmlns="http://www.w3.org/2000/svg">
<g filter="url(#filter0_b_223_2744)">
<rect width="116" height="23" rx="11.5" fill="url(#paint0_linear_223_2744)"/>
<path d="M28.8334 8.66667C28.8334 9.44583 28.2334 10.0833 27.5 10.0833C27.38 10.0833 27.2667 10.0692 27.16 10.0338L24.7867 12.5483C24.82 12.6617 24.8334 12.7892 24.8334 12.9167C24.8334 13.6958 24.2334 14.3333 23.5 14.3333C22.7667 14.3333 22.1667 13.6958 22.1667 12.9167C22.1667 12.7892 22.18 12.6617 22.2134 12.5483L20.5134 10.7421C20.4067 10.7775 20.2867 10.7917 20.1667 10.7917C20.0467 10.7917 19.9267 10.7775 19.82 10.7421L16.7867 13.9721C16.82 14.0854 16.8334 14.2058 16.8334 14.3333C16.8334 15.1125 16.2334 15.75 15.5 15.75C14.7667 15.75 14.1667 15.1125 14.1667 14.3333C14.1667 13.5542 14.7667 12.9167 15.5 12.9167C15.62 12.9167 15.7334 12.9308 15.84 12.9662L18.88 9.74333C18.8467 9.63 18.8334 9.5025 18.8334 9.375C18.8334 8.59583 19.4334 7.95833 20.1667 7.95833C20.9 7.95833 21.5 8.59583 21.5 9.375C21.5 9.5025 21.4867 9.63 21.4534 9.74333L23.1534 11.5496C23.26 11.5142 23.38 11.5 23.5 11.5C23.62 11.5 23.74 11.5142 23.8467 11.5496L26.2134 9.02792C26.18 8.91458 26.1667 8.79417 26.1667 8.66667C26.1667 7.8875 26.7667 7.25 27.5 7.25C28.2334 7.25 28.8334 7.8875 28.8334 8.66667Z" fill="white" fill-opacity="0.87"/>
<path d="M37.6729 14.6567C36.7678 14.6567 36.0751 14.4269 35.5947 13.9674C35.1143 13.5009 34.8671 12.8673 34.8532 12.0667H36.2108C36.2665 13.0344 36.7365 13.5183 37.6207 13.5183C38.0176 13.5183 38.3274 13.4174 38.5502 13.2155C38.773 13.0066 38.8844 12.7211 38.8844 12.3591C38.8844 12.011 38.773 11.7395 38.5502 11.5445C38.3274 11.3496 38.0001 11.2521 37.5685 11.2521H37.1299V10.1764H37.5372C37.8853 10.1764 38.1638 10.0929 38.3726 9.92578C38.5885 9.75868 38.6964 9.52545 38.6964 9.22607C38.6964 8.94062 38.6059 8.71434 38.4248 8.54725C38.2438 8.37319 37.9967 8.28616 37.6834 8.28616C37.2935 8.28616 36.9906 8.40104 36.7748 8.63079C36.5659 8.86055 36.4545 9.17037 36.4406 9.56026H35.083C35.1108 8.83618 35.3475 8.26179 35.7931 7.83709C36.2387 7.41239 36.8688 7.20004 37.6834 7.20004C38.4353 7.20004 39.0306 7.3741 39.4692 7.72222C39.9148 8.07033 40.1376 8.54028 40.1376 9.13208C40.1376 9.87008 39.7303 10.3714 38.9157 10.6359V10.6568C39.8834 10.8935 40.3673 11.4923 40.3673 12.4531C40.3673 13.1632 40.1132 13.7098 39.605 14.0927C39.0967 14.4687 38.4527 14.6567 37.6729 14.6567ZM43.6401 14.6567C42.8395 14.6567 42.1746 14.4582 41.6454 14.0614C41.1233 13.6645 40.8274 13.1215 40.7577 12.4322H42.1571C42.2198 12.7734 42.3799 13.031 42.6375 13.205C42.9021 13.3791 43.2259 13.4661 43.6088 13.4661C44.0056 13.4661 44.3259 13.3408 44.5696 13.0901C44.8133 12.8325 44.9351 12.5088 44.9351 12.1189C44.9351 11.7081 44.8098 11.3879 44.5591 11.1581C44.3155 10.9214 43.9987 10.803 43.6088 10.803C43.0866 10.803 42.6967 10.9527 42.4391 11.2521H41.071L41.7603 7.34625H45.9794V8.52636H42.7524L42.4809 10.072H42.5018C42.8499 9.77261 43.3442 9.62292 43.9847 9.62292C44.6462 9.62292 45.2136 9.85267 45.687 10.3122C46.1674 10.7717 46.4076 11.3739 46.4076 12.1189C46.4076 12.8569 46.1431 13.4661 45.6139 13.9465C45.0918 14.4199 44.4338 14.6567 43.6401 14.6567ZM49.9597 14.6671C49.0476 14.6671 48.3201 14.3294 47.777 13.6541C47.2409 12.9787 46.9729 12.0702 46.9729 10.9283C46.9729 9.78653 47.2444 8.87795 47.7875 8.20261C48.3305 7.52727 49.0581 7.1896 49.9701 7.1896C50.8892 7.1896 51.6132 7.52727 52.1424 8.20261C52.6785 8.87099 52.9465 9.77957 52.9465 10.9283C52.9465 12.0702 52.6785 12.9787 52.1424 13.6541C51.6132 14.3294 50.8857 14.6671 49.9597 14.6671ZM49.9701 13.4557C50.9657 13.4557 51.4635 12.6132 51.4635 10.9283C51.4635 10.1346 51.3417 9.515 51.098 9.06942C50.8543 8.62383 50.4784 8.40104 49.9701 8.40104C49.4549 8.40104 49.072 8.62383 48.8214 9.06942C48.5777 9.515 48.4558 10.1346 48.4558 10.9283C48.4558 11.722 48.5777 12.3417 48.8214 12.7873C49.072 13.2329 49.4549 13.4557 49.9701 13.4557ZM55.0958 14.5L57.5083 10.5942L55.2734 7.03295H56.9756L58.3542 9.39316H58.3751L59.7536 7.03295H61.4037L59.2105 10.5837L61.6856 14.5H59.9207L58.3959 11.7743H58.3751L56.8294 14.5H55.0958ZM62.3484 14.5V7.03295H65.6276C66.477 7.03295 67.128 7.26619 67.5805 7.73266C68.0261 8.19217 68.2489 8.7596 68.2489 9.43494C68.2489 10.1451 68.0261 10.716 67.5805 11.1477C67.1349 11.5793 66.5257 11.7952 65.7529 11.7952H63.9149V14.5H62.3484ZM63.9149 8.34882V10.5628H65.4814C65.8713 10.5628 66.1707 10.4654 66.3795 10.2704C66.5884 10.0685 66.6928 9.7935 66.6928 9.44538C66.6928 9.09727 66.5884 8.82922 66.3795 8.64124C66.1707 8.44629 65.8783 8.34882 65.5023 8.34882H63.9149ZM73.1541 14.6567C72.2907 14.6567 71.6119 14.3921 71.1176 13.863C70.6233 13.3269 70.3761 12.6446 70.3761 11.816C70.3761 11.0154 70.6233 10.347 71.1176 9.8109C71.6119 9.26784 72.2455 8.99631 73.0183 8.99631C73.8607 8.99631 74.5117 9.28873 74.9712 9.87356C75.4307 10.4584 75.6605 11.2417 75.6605 12.2233H71.7755C71.8312 12.648 71.974 12.9787 72.2037 13.2155C72.4335 13.4452 72.7468 13.5601 73.1436 13.5601C73.6658 13.5601 74.0104 13.3408 74.1775 12.9022H75.5769C75.4725 13.4034 75.2079 13.8212 74.7832 14.1554C74.3585 14.4896 73.8155 14.6567 73.1541 14.6567ZM73.0392 10.0929C72.3499 10.0929 71.9357 10.4758 71.7964 11.2417H74.1775C74.1566 10.9005 74.0417 10.6255 73.8329 10.4166C73.624 10.2008 73.3594 10.0929 73.0392 10.0929ZM79.6911 14.5C79.6214 14.4095 79.5658 14.2111 79.524 13.9047H79.5031C79.3499 14.1345 79.155 14.312 78.9183 14.4373C78.6815 14.5627 78.3508 14.6253 77.9261 14.6253C77.3622 14.6253 76.9096 14.4826 76.5685 14.1971C76.2273 13.9117 76.0568 13.5079 76.0568 12.9857C76.0568 12.4426 76.2447 12.0458 76.6207 11.7952C76.9967 11.5375 77.5258 11.36 78.2081 11.2625C78.7094 11.1929 79.0505 11.1233 79.2316 11.0537C79.4126 10.9771 79.5031 10.8448 79.5031 10.6568C79.5031 10.4619 79.4265 10.3087 79.2733 10.1973C79.1202 10.0789 78.8974 10.0198 78.605 10.0198C77.9575 10.0198 77.6128 10.2704 77.5711 10.7717H76.3074C76.3283 10.2634 76.5337 9.84223 76.9236 9.50804C77.3135 9.17385 77.8774 9.00676 78.6154 9.00676C80.1193 9.00676 80.8712 9.66469 80.8712 10.9806V13.7063C80.8712 14.1101 80.9338 14.3573 81.0592 14.4478V14.5H79.6911ZM78.2708 13.6332C78.6607 13.6332 78.967 13.5322 79.1898 13.3303C79.4195 13.1284 79.5344 12.8882 79.5344 12.6097V11.8056C79.3812 11.8961 79.0505 12.0005 78.5423 12.1189C78.1385 12.2094 77.853 12.3138 77.6859 12.4322C77.5188 12.5436 77.4353 12.7177 77.4353 12.9544C77.4353 13.4069 77.7138 13.6332 78.2708 13.6332ZM83.1422 9.14252V9.99888H83.1735C83.3406 9.68558 83.5251 9.45582 83.727 9.30962C83.929 9.15645 84.1831 9.07986 84.4894 9.07986C84.6356 9.07986 84.747 9.09379 84.8236 9.12163V10.3644H84.7923C84.3119 10.3157 83.9255 10.4201 83.6331 10.6777C83.3406 10.9353 83.1944 11.3391 83.1944 11.8891V14.5H81.7741V9.14252H83.1422ZM86.8244 9.14252V9.87356H86.8558C87.2248 9.28873 87.7539 8.99631 88.4432 8.99631C88.9932 8.99631 89.4388 9.1843 89.7799 9.56026C90.1211 9.92926 90.2916 10.4097 90.2916 11.0015V14.5H88.8713V11.2103C88.8713 10.9179 88.7878 10.6812 88.6207 10.5002C88.4606 10.3191 88.2343 10.2286 87.9419 10.2286C87.6286 10.2286 87.3675 10.3435 87.1586 10.5733C86.9567 10.803 86.8558 11.0989 86.8558 11.461V14.5H85.4354V9.14252H86.8244ZM93.684 14.6567C92.8206 14.6567 92.1418 14.3921 91.6475 13.863C91.1532 13.3269 90.906 12.6446 90.906 11.816C90.906 11.0154 91.1532 10.347 91.6475 9.8109C92.1418 9.26784 92.7754 8.99631 93.5482 8.99631C94.3906 8.99631 95.0416 9.28873 95.5011 9.87356C95.9606 10.4584 96.1904 11.2417 96.1904 12.2233H92.3054C92.3611 12.648 92.5039 12.9787 92.7336 13.2155C92.9634 13.4452 93.2767 13.5601 93.6735 13.5601C94.1957 13.5601 94.5403 13.3408 94.7074 12.9022H96.1068C96.0024 13.4034 95.7378 13.8212 95.3131 14.1554C94.8884 14.4896 94.3454 14.6567 93.684 14.6567ZM93.5691 10.0929C92.8798 10.0929 92.4656 10.4758 92.3263 11.2417H94.7074C94.6865 10.9005 94.5716 10.6255 94.3628 10.4166C94.1539 10.2008 93.8893 10.0929 93.5691 10.0929ZM98.8529 14.6567C98.1775 14.6567 97.631 14.4025 97.2133 13.8943C96.7955 13.3791 96.5867 12.6898 96.5867 11.8265C96.5867 10.991 96.799 10.3122 97.2237 9.79001C97.6554 9.26088 98.2054 8.99631 98.8738 8.99631C99.5421 8.99631 100.047 9.26088 100.388 9.79001H100.419V7.03295H101.84V14.5H100.472V13.8003H100.451C100.103 14.3712 99.57 14.6567 98.8529 14.6567ZM99.1662 13.4661C99.5839 13.4661 99.9007 13.3234 100.117 13.0379C100.339 12.7525 100.451 12.3591 100.451 11.8578C100.451 10.716 100.036 10.1451 99.208 10.1451C98.825 10.1451 98.5326 10.2983 98.3307 10.6046C98.1288 10.9109 98.0279 11.3182 98.0279 11.8265C98.0279 12.3487 98.1253 12.7525 98.3203 13.0379C98.5222 13.3234 98.8041 13.4661 99.1662 13.4661Z" fill="white"/>
</g>
<defs>
<filter id="filter0_b_223_2744" x="-86.8893" y="-86.8893" width="289.779" height="196.779" filterUnits="userSpaceOnUse" color-interpolation-filters="sRGB">
<feFlood flood-opacity="0" result="BackgroundImageFix"/>
<feGaussianBlur in="BackgroundImageFix" stdDeviation="43.4446"/>
<feComposite in2="SourceAlpha" operator="in" result="effect1_backgroundBlur_223_2744"/>
<feBlend mode="normal" in="SourceGraphic" in2="effect1_backgroundBlur_223_2744" result="shape"/>
</filter>
<linearGradient id="paint0_linear_223_2744" x1="-134.926" y1="11.9446" x2="116" y2="11.9446" gradientUnits="userSpaceOnUse">
<stop stop-color="#06115D"/>
<stop offset="0.475203" stop-color="#0361DA"/>
<stop offset="0.99589" stop-color="#20A5EF"/>
</linearGradient>
</defs>
</svg>
